<svg xmlns="http://www.w3.org/2000/svg" version="1.1" xmlns:xlink="http://www.w3.org/1999/xlink" xmlns:svgjs="http://svgjs.dev/svgjs" width="1500" height="1500" viewBox="0 0 1500 1500"><rect width="1500" height="1500" fill="#ffffff"></rect><g transform="matrix(0.6666666666666666,0,0,0.6666666666666666,249.3939393939395,652.8703258527909)"><svg viewBox="0 0 396 77" data-background-color="#ffffff" preserveAspectRatio="xMidYMid meet" height="291" width="1500" xmlns="http://www.w3.org/2000/svg" xmlns:xlink="http://www.w3.org/1999/xlink"><g id="tight-bounds" transform="matrix(1,0,0,1,0.23999999999995225,0.051468604820115615)"><svg viewBox="0 0 395.52 76.89706279035974" height="76.89706279035974" width="395.52"><g><svg viewBox="0 0 559.8114259569371 108.83862857142854" height="76.89706279035974" width="395.52"><g><rect width="9.766348105508571" height="108.83862857142854" x="128.95872155428572" y="0" fill="#000000" opacity="1" stroke-width="0" stroke="transparent" fill-opacity="1" class="rect-yte-0" data-fill-palette-color="primary" rx="1%" id="yte-0" data-palette-color="#111111"></rect></g><g transform="matrix(1,0,0,1,164.29142595693713,0.2707428571428494)"><svg viewBox="0 0 395.52 108.29714285714284" height="108.29714285714284" width="395.52"><g id="textblocktransform"><svg viewBox="0 0 395.52 108.29714285714284" height="108.29714285714284" width="395.52" id="textblock"><g><svg viewBox="0 0 395.52 108.29714285714284" height="108.29714285714284" width="395.52"><g transform="matrix(1,0,0,1,0,0)"><svg width="395.52" viewBox="-0.24 -32.03 118.92999999999999 32.57" height="108.29714285714284" data-palette-color="#111111"><path d="M28.69-28.98Q29.52-28.98 29.87-28.6 30.22-28.22 30.22-27.32L30.22-27.32Q30.22-26.42 29.87-26.04 29.52-25.66 28.69-25.66L28.69-25.66 27.37-25.66 24-1.05Q23.88-0.17 23.38 0.18 22.88 0.54 21.9 0.54L21.9 0.54Q19.9 0.54 19.41-1.05L19.41-1.05 14.89-15.23 10.33-1.05Q9.81 0.54 7.79 0.54L7.79 0.54Q6.84 0.54 6.34 0.17 5.83-0.2 5.74-1.05L5.74-1.05 2.49-25.66 1.29-25.66Q0.46-25.66 0.11-26.04-0.24-26.42-0.24-27.32L-0.24-27.32Q-0.24-28.22 0.11-28.6 0.46-28.98 1.29-28.98L1.29-28.98 9.69-28.98Q10.52-28.98 10.88-28.6 11.23-28.22 11.23-27.32L11.23-27.32Q11.23-26.42 10.88-26.04 10.52-25.66 9.69-25.66L9.69-25.66 6.13-25.66 8.57-6.1 13.16-20.46Q13.5-21.61 14.92-21.61L14.92-21.61Q15.7-21.61 16.13-21.36 16.55-21.12 16.7-20.63L16.7-20.63 21.26-6.1 23.8-25.66 20.78-25.66Q19.95-25.66 19.59-26.04 19.24-26.42 19.24-27.32L19.24-27.32Q19.24-28.22 19.59-28.6 19.95-28.98 20.78-28.98L20.78-28.98 28.69-28.98ZM45.19-23.1Q48.73-23.1 51.23-21.67 53.73-20.24 55.08-17.71 56.42-15.19 56.61-11.89L56.61-11.89Q56.61-11.06 56.26-10.72 55.91-10.38 55.08-10.38L55.08-10.38 37.4-10.38Q37.57-6.74 39.56-4.87 41.55-3 45.19-3L45.19-3Q47.43-3 49.63-3.58 51.83-4.15 53.49-5.1L53.49-5.1Q53.9-5.32 54.25-5.32L54.25-5.32Q55.1-5.32 55.64-4.03L55.64-4.03Q55.86-3.52 55.86-3.1L55.86-3.1Q55.86-2.12 54.78-1.59L54.78-1.59Q52.9-0.63 50.34-0.05 47.78 0.54 45.19 0.54L45.19 0.54Q41.5 0.54 38.89-0.88 36.28-2.29 34.91-4.96 33.54-7.62 33.54-11.28L33.54-11.28Q33.54-14.77 35.03-17.46 36.52-20.14 39.16-21.62 41.79-23.1 45.19-23.1L45.19-23.1ZM45.19-19.56Q42.19-19.56 40.22-18.03 38.25-16.5 37.64-13.79L37.64-13.79 52.56-13.79Q52.05-16.6 50.21-18.08 48.36-19.56 45.19-19.56L45.19-19.56ZM67.01-32.03Q67.84-32.03 68.2-31.65 68.55-31.27 68.55-30.37L68.55-30.37 68.55-19.07Q71.7-23.1 76.29-23.1L76.29-23.1Q79.32-23.1 81.71-21.67 84.1-20.24 85.47-17.57 86.84-14.89 86.84-11.28L86.84-11.28Q86.84-7.67 85.47-4.99 84.1-2.32 81.71-0.89 79.32 0.54 76.29 0.54L76.29 0.54Q73.9 0.54 71.87-0.54 69.84-1.61 68.31-3.61L68.31-3.61 68.31-1.66Q68.31-0.76 67.95-0.38 67.6 0 66.77 0L66.77 0 62.89 0Q62.06 0 61.7-0.38 61.35-0.76 61.35-1.66L61.35-1.66Q61.35-2.56 61.7-2.94 62.06-3.32 62.89-3.32L62.89-3.32 64.89-3.32 64.89-28.71 62.4-28.71Q61.57-28.71 61.21-29.09 60.86-29.47 60.86-30.37L60.86-30.37Q60.86-31.27 61.21-31.65 61.57-32.03 62.4-32.03L62.4-32.03 67.01-32.03ZM76.04-19.48Q73.87-19.48 72.18-18.51 70.48-17.53 69.51-15.67 68.55-13.82 68.55-11.28L68.55-11.28Q68.55-8.74 69.51-6.88 70.48-5.03 72.18-4.05 73.87-3.08 76.04-3.08L76.04-3.08Q78.22-3.08 79.78-4.11 81.34-5.15 82.16-7.01 82.98-8.86 82.98-11.28L82.98-11.28Q82.98-13.7 82.16-15.55 81.34-17.41 79.78-18.44 78.22-19.48 76.04-19.48L76.04-19.48ZM116.42-28.98Q117.25-28.98 117.61-28.6 117.96-28.22 117.96-27.32L117.96-27.32Q117.96-26.42 117.61-26.04 117.25-25.66 116.42-25.66L116.42-25.66 114.84-25.66 107.29-15.06 115.74-3.32 117.16-3.32Q117.99-3.32 118.34-2.94 118.69-2.56 118.69-1.66L118.69-1.66Q118.69-0.76 118.34-0.38 117.99 0 117.16 0L117.16 0 108.51 0Q107.68 0 107.33-0.38 106.97-0.76 106.97-1.66L106.97-1.66Q106.97-2.56 107.33-2.94 107.68-3.32 108.51-3.32L108.51-3.32 111.17-3.32 104.95-12.23 98.58-3.32 100.6-3.32Q101.43-3.32 101.79-2.94 102.14-2.56 102.14-1.66L102.14-1.66Q102.14-0.76 101.79-0.38 101.43 0 100.6 0L100.6 0 92.69 0Q91.86 0 91.51-0.38 91.15-0.76 91.15-1.66L91.15-1.66Q91.15-2.56 91.51-2.94 91.86-3.32 92.69-3.32L92.69-3.32 94.21-3.32 102.73-15.11 95.11-25.66 93.43-25.66Q92.6-25.66 92.24-26.04 91.89-26.42 91.89-27.32L91.89-27.32Q91.89-28.22 92.24-28.6 92.6-28.98 93.43-28.98L93.43-28.98 101.82-28.98Q102.65-28.98 103.01-28.6 103.36-28.22 103.36-27.32L103.36-27.32Q103.36-26.42 103.01-26.04 102.65-25.66 101.82-25.66L101.82-25.66 99.65-25.66 105.05-17.94 110.47-25.66 109-25.66Q108.17-25.66 107.82-26.04 107.46-26.42 107.46-27.32L107.46-27.32Q107.46-28.22 107.82-28.6 108.17-28.98 109-28.98L109-28.98 116.42-28.98Z" opacity="1" transform="matrix(1,0,0,1,0,0)" fill="#000000" class="wordmark-text-0" data-fill-palette-color="primary" id="text-0"></path></svg></g></svg></g></svg></g></svg></g><g transform="matrix(1,0,0,1,0,0.2707428571428494)"><svg viewBox="0 0 103.39236525714286 108.29714285714284" height="108.29714285714284" width="103.39236525714286"><g><svg version="1.0" xmlns="http://www.w3.org/2000/svg" xmlns:xlink="http://www.w3.org/1999/xlink" x="0" y="0" viewBox="0 0 95.471 100" enable-background="new 0 0 95.471 100" xml:space="preserve" id="icon-0" width="103.39236525714286" height="108.29714285714284" class="icon-icon-0" data-fill-palette-color="accent"><path d="M47.735 0C47.652 2.825 45.997 13.412 27.936 30.934 10.554 47.797 2.439 49.824 0 50 2.439 50.178 10.554 52.204 27.936 69.066 45.997 86.589 47.652 97.177 47.735 100 47.818 97.177 49.474 86.589 67.533 69.066 84.917 52.204 93.031 50.178 95.471 50 93.032 49.824 84.917 47.797 67.533 30.934 49.475 13.412 47.819 2.825 47.735 0" fill="#000000" data-fill-palette-color="accent"></path></svg></g></svg></g></svg></g><defs></defs></svg><rect width="395.52" height="76.89706279035974" fill="none" stroke="none" visibility="hidden"></rect></g></svg></g></svg>